<?xml version="1.0" standalone="no"?>
<!DOCTYPE svg PUBLIC "-//W3C//DTD SVG 20010904//EN"
 "http://www.w3.org/TR/2001/REC-SVG-20010904/DTD/svg10.dtd">
<svg version="1.0" xmlns="http://www.w3.org/2000/svg"
 width="200.000000pt" height="200.000000pt" viewBox="0 0 200.000000 200.000000"
 preserveAspectRatio="xMidYMid meet">
<metadata>
Created by potrace 1.11, written by Peter Selinger 2001-2013
</metadata>
<g transform="translate(0.000000,200.000000) scale(0.100000,-0.100000)"
fill="#000000" stroke="none">
<path d="M950 1788 c-25 -5 -68 -11 -97 -13 -64 -5 -118 -27 -132 -53 -8 -16
-6 -25 9 -45 22 -27 98 -53 132 -44 15 4 33 -2 55 -19 l32 -24 -14 -41 c-8
-23 -15 -49 -15 -59 0 -27 -42 -57 -89 -63 -54 -7 -96 -36 -96 -68 0 -31 47
-58 121 -67 50 -6 60 -11 76 -38 16 -27 16 -32 2 -52 -24 -35 -74 -56 -154
-64 -240 -24 -228 -24 -261 8 -17 16 -37 41 -44 55 -13 24 -12 28 8 47 12 11
40 23 62 26 22 4 58 17 80 29 76 43 51 103 -47 113 -24 3 -60 10 -81 16 -34
10 -38 14 -32 37 15 63 89 141 147 155 42 10 49 53 14 83 -15 13 -39 23 -54
23 -15 0 -41 4 -58 9 -59 17 -123 -32 -144 -108 -5 -20 -18 -97 -29 -171 -19
-124 -19 -141 -6 -210 8 -41 15 -89 15 -106 0 -39 51 -119 92 -144 39 -24 80
-25 158 -5 48 12 101 14 292 9 581 -15 629 -10 668 71 49 102 49 358 -1 505
-18 51 -35 78 -84 127 -53 55 -66 63 -98 63 -31 0 -39 -4 -48 -27 -9 -23 -6
-31 26 -63 19 -20 35 -44 35 -53 0 -10 7 -31 15 -47 25 -48 48 -207 41 -283
-11 -118 -32 -139 -159 -157 -86 -13 -153 3 -209 50 -33 27 -36 33 -28 61 17
60 24 62 141 55 99 -6 108 -5 140 17 43 29 52 82 18 113 -19 17 -36 19 -147
19 l-126 0 -18 60 c-10 33 -15 68 -12 77 7 24 80 64 129 72 62 10 91 25 104
53 13 29 4 46 -40 69 -32 16 -214 18 -289 2z"/>
<path d="M1074 860 c-46 -14 -66 -42 -66 -93 0 -50 12 -79 50 -119 47 -51 120
-27 153 49 16 37 17 52 9 82 -18 68 -78 101 -146 81z"/>
<path d="M325 836 c-15 -15 -26 -40 -30 -72 -4 -32 -29 -94 -70 -175 -49 -95
-65 -136 -65 -168 0 -46 23 -76 67 -87 39 -10 73 13 111 76 56 94 70 145 77
283 5 118 4 128 -15 147 -26 26 -46 25 -75 -4z"/>
<path d="M1511 824 c-22 -19 -55 -59 -74 -87 -19 -29 -44 -61 -56 -71 -41 -38
-20 -76 42 -76 63 0 170 64 225 134 48 62 17 136 -58 136 -32 0 -48 -7 -79
-36z"/>
<path d="M642 779 c-29 -17 -57 -39 -62 -49 -12 -23 -35 -131 -49 -232 -14
-100 -5 -128 43 -128 43 0 53 12 65 87 19 120 65 158 112 94 12 -16 38 -37 59
-46 27 -12 40 -26 47 -48 11 -41 80 -93 208 -156 105 -53 129 -60 290 -85 257
-40 347 -46 397 -27 76 29 91 98 33 150 -48 41 -73 46 -170 31 -97 -15 -112
-13 -398 57 -149 36 -195 52 -223 74 -20 16 -44 31 -53 34 -10 3 -23 16 -30
29 -7 13 -35 40 -62 60 -47 35 -49 39 -49 84 0 38 -5 53 -23 70 -38 36 -75 36
-135 1z"/>
</g>
</svg>
